<?xml version="1.0" encoding="utf-8" ?>
<svg xmlns="http://www.w3.org/2000/svg" xmlns:xlink="http://www.w3.org/1999/xlink" width="1024" height="1024">
	<path fill="#fffdf7" d="M0 0L1024 0L1024 1024L0 1024L0 0ZM500.778 52.2414C429.397 54.2108 360.796 77.7615 311.026 130.393C305.262 136.489 287.472 155.399 287.627 163.107C287.649 164.19 287.99 165.347 288.763 166.139C291.45 168.892 297.51 168.159 300.996 167.772C304.425 167.391 307.786 166.879 311.15 166.119C306.064 170.261 300.86 174.338 296.06 178.813C289.024 185.373 271.039 204.204 269.849 213.946C269.64 215.663 269.92 217.187 270.967 218.601C272.499 220.671 275.8 221.32 278.193 221.457C288.035 222.024 302.479 218.158 312.262 216.022C308.508 220.848 298.389 232.472 298.985 238.452C299.124 239.84 299.793 240.956 300.901 241.777C305.607 245.261 314.738 242.803 320.106 241.983C319.964 258.431 319.387 274.831 319.457 291.291C319.511 303.964 320.155 316.579 320.452 329.24C321.236 376.774 324.142 424.249 329.161 471.523C331.678 493.537 333.604 515.936 340.141 537.222C343.833 549.244 348.982 560.531 357.907 569.595C373.659 585.594 397.129 590.153 418.689 591.585C421.409 591.765 427.411 591.229 429.614 592.442C431.342 593.392 430.861 596.392 430.859 598.061L430.737 670.252C430.71 682.94 431.51 696.203 430.411 708.822C423.038 712.196 416.11 716.46 409.058 720.445C368.564 743.262 330.604 770.307 295.812 801.126C284.914 810.845 273.493 821.327 264.534 832.905C257.783 841.629 252.75 851.98 248.915 862.284C244.443 874.301 221.166 960.78 224.123 968.221C224.771 969.852 226.329 971.145 228.002 971.614C229.272 971.971 230.701 971.87 231.86 971.215C235.011 969.434 235.404 963.501 235.946 960.268C238.914 942.566 243.436 925.647 247.944 908.314C253.749 886.001 257.868 862.47 271.301 843.135C280.937 829.265 294.662 817.67 306.861 806.095C305.045 819.914 300.635 834.361 297.887 848.208C292.157 877.835 287.412 907.643 283.659 937.584C282.508 946.838 280.491 956.738 280.521 966.057C280.527 968.182 280.797 969.734 281.773 971.617C282.685 972.262 283.162 972.718 284.368 972.316C285.539 971.925 286.268 970.983 286.535 969.815C287.793 964.311 287.642 957.697 288.244 952.034C289.55 940.094 291.058 928.176 292.766 916.286C298.376 877.339 305.643 838.649 314.546 800.321C318.896 795.957 323.876 792.123 328.63 788.205C344.013 775.617 360.093 763.907 376.795 753.13C381.662 749.963 386.481 746.415 391.55 743.609C382.389 774.192 376.02 805.164 370.514 836.574C364.043 872.588 359.223 908.879 356.068 945.333C355.557 951.174 352.844 967.821 355.159 972.315C355.881 972.789 356.021 973.132 356.932 972.965C357.98 972.773 358.428 972.342 359.216 971.68C361.349 967.672 362.128 946.679 363.069 940.427C370.506 941.886 378.119 942.509 385.653 943.274L424.137 947.078C432.375 947.878 440.769 948.422 448.926 949.817C448.313 955.977 446.067 968.394 448.493 973.732C449.471 974.535 449.736 974.914 451.096 974.648C452.075 974.456 453.158 973.706 453.484 972.747C453.872 971.611 453.763 969.639 453.839 968.417C454.979 962.652 454.674 956.33 454.969 950.452L526.768 956.804C532.73 957.308 554.447 958.262 558.82 959.793C561.162 964.066 557.572 969.793 561.204 973.307C562.463 973.649 563.019 973.685 564.267 973.292C564.785 972.71 565.171 972.166 565.425 971.42C567.578 965.084 566.494 956.668 567.017 949.994C568.379 932.586 569.869 914.873 572.162 897.566C576.141 867.533 581.683 837.195 589.983 808.047C594.508 792.152 600.225 776.766 605.42 761.101C622.934 753.887 640.538 746.891 658.226 740.115C669.541 742.591 731.506 781.242 740.813 790.006C719.308 813.372 696.613 837.822 687.142 868.897C682.745 883.322 680.626 898.572 678.334 913.455C676.611 924.72 675.321 936.046 674.465 947.409C674.056 952.492 673.345 957.991 673.648 963.085C673.766 965.066 674.045 967.047 675.433 968.547C676.097 968.681 676.349 968.895 676.98 968.51C678.908 967.331 679.612 964.212 679.945 962.152C681.894 950.12 681.961 937.448 683.366 925.275C684.356 916.703 685.918 908.149 687.342 899.639C693.808 861.012 702.967 843.412 728.38 813.804C734.146 807.087 739.801 800.19 745.956 793.825C755.849 802.263 764.335 811.412 770.228 823.127C782.112 846.749 784.804 897.808 786.988 925.397C787.652 933.782 788.238 959.896 790.344 965.881C790.687 966.857 791.115 967.625 791.982 968.23C793.271 969.129 794.872 969.27 796.356 968.873C797.75 968.5 799.529 967.603 800.148 966.207C802.805 960.219 794.706 881.65 793.265 870.124C792.145 861.159 790.805 852.112 788.939 843.271C786.916 833.682 783.799 824.309 779.145 815.664C761.021 781.999 700.147 747.879 665.985 731.381C660.613 720.081 655.07 708.863 649.36 697.731C646.606 692.294 644.024 686.017 640.461 681.091C639.277 679.454 638.158 678.198 636.298 677.374C631.582 677.268 627.238 680.721 622.831 682.1L642.423 529.099C644.127 516.482 645.416 503.812 646.982 491.177C647.657 485.728 648.097 480.082 649.152 474.704C666.036 474.468 679.047 465.159 690.487 453.422C712.569 430.767 723.479 398.938 722.824 367.647C722.498 352.075 717.697 334.318 706.123 323.275C703.358 320.638 700.222 318.532 697.052 316.419C701.428 306.507 703.426 295.3 705.775 284.756C710.924 261.644 715.004 237.703 724.324 215.834C726.632 210.42 729.148 205.089 730.11 199.231C731.454 191.041 730.576 183.887 727.609 176.165C724.071 166.957 718.582 158.993 712.823 151.066C688.226 117.211 652.923 88.1944 614.562 71.4062C585.02 58.4778 553.495 53.5726 521.475 52.5244C514.58 52.2987 507.676 51.9678 500.778 52.2414Z"/>
	<path d="M311.15 166.119C307.786 166.879 304.425 167.391 300.996 167.772C297.51 168.159 291.45 168.892 288.763 166.139C287.99 165.347 287.649 164.19 287.627 163.107C287.472 155.399 305.262 136.489 311.026 130.393C360.796 77.7615 429.397 54.2108 500.778 52.2414C507.676 51.9678 514.58 52.2987 521.475 52.5244C553.495 53.5726 585.02 58.4778 614.562 71.4062C652.923 88.1944 688.226 117.211 712.823 151.066C718.582 158.993 724.071 166.957 727.609 176.165C730.576 183.887 731.454 191.041 730.11 199.231C729.148 205.089 726.632 210.42 724.324 215.834C715.004 237.703 710.924 261.644 705.775 284.756C703.426 295.3 701.428 306.507 697.052 316.419C700.222 318.532 703.358 320.638 706.123 323.275C717.697 334.318 722.498 352.075 722.824 367.647C723.479 398.938 712.569 430.767 690.487 453.422C679.047 465.159 666.036 474.468 649.152 474.704C648.097 480.082 647.657 485.728 646.982 491.177C645.416 503.812 644.127 516.482 642.423 529.099L622.831 682.1C627.238 680.721 631.582 677.268 636.298 677.374C638.158 678.198 639.277 679.454 640.461 681.091C644.024 686.017 646.606 692.294 649.36 697.731C655.07 708.863 660.613 720.081 665.985 731.381C700.147 747.879 761.021 781.999 779.145 815.664C783.799 824.309 786.916 833.682 788.939 843.271C790.805 852.112 792.145 861.159 793.265 870.124C794.706 881.65 802.805 960.219 800.148 966.207C799.529 967.603 797.75 968.5 796.356 968.873C794.872 969.27 793.271 969.129 791.982 968.23C791.115 967.625 790.687 966.857 790.344 965.881C788.238 959.896 787.652 933.782 786.988 925.397C784.804 897.808 782.112 846.749 770.228 823.127C764.335 811.412 755.849 802.263 745.956 793.825C739.801 800.19 734.146 807.087 728.38 813.804C702.967 843.412 693.808 861.012 687.342 899.639C685.918 908.149 684.356 916.703 683.366 925.275C681.961 937.448 681.894 950.12 679.945 962.152C679.612 964.212 678.908 967.331 676.98 968.51C676.349 968.895 676.097 968.681 675.433 968.547C674.045 967.047 673.766 965.066 673.648 963.085C673.345 957.991 674.056 952.492 674.465 947.409C675.321 936.046 676.611 924.72 678.334 913.455C680.626 898.572 682.745 883.322 687.142 868.897C696.613 837.822 719.308 813.372 740.813 790.006C731.506 781.242 669.541 742.591 658.226 740.115C640.538 746.891 622.934 753.887 605.42 761.101C600.225 776.766 594.508 792.152 589.983 808.047C581.683 837.195 576.141 867.533 572.162 897.566C569.869 914.873 568.379 932.586 567.017 949.994C566.494 956.668 567.578 965.084 565.425 971.42C565.171 972.166 564.785 972.71 564.267 973.292C563.019 973.685 562.463 973.649 561.204 973.307C557.572 969.793 561.162 964.066 558.82 959.793C554.447 958.262 532.73 957.308 526.768 956.804L454.969 950.452C454.674 956.33 454.979 962.652 453.839 968.417C453.763 969.639 453.872 971.611 453.484 972.747C453.158 973.706 452.075 974.456 451.096 974.648C449.736 974.914 449.471 974.535 448.493 973.732C446.067 968.394 448.313 955.977 448.926 949.817C440.769 948.422 432.375 947.878 424.137 947.078L385.653 943.274C378.119 942.509 370.506 941.886 363.069 940.427C362.128 946.679 361.349 967.672 359.216 971.68C358.428 972.342 357.98 972.773 356.932 972.965C356.021 973.132 355.881 972.789 355.159 972.315C352.844 967.821 355.557 951.174 356.068 945.333C359.223 908.879 364.043 872.588 370.514 836.574C376.02 805.164 382.389 774.192 391.55 743.609C386.481 746.415 381.662 749.963 376.795 753.13C360.093 763.907 344.013 775.617 328.63 788.205C323.876 792.123 318.896 795.957 314.546 800.321C305.643 838.649 298.376 877.339 292.766 916.286C291.058 928.176 289.55 940.094 288.244 952.034C287.642 957.697 287.793 964.311 286.535 969.815C286.268 970.983 285.539 971.925 284.368 972.316C283.162 972.718 282.685 972.262 281.773 971.617C280.797 969.734 280.527 968.182 280.521 966.057C280.491 956.738 282.508 946.838 283.659 937.584C287.412 907.643 292.157 877.835 297.887 848.208C300.635 834.361 305.045 819.914 306.861 806.095C294.662 817.67 280.937 829.265 271.301 843.135C257.868 862.47 253.749 886.001 247.944 908.314C243.436 925.647 238.914 942.566 235.946 960.268C235.404 963.501 235.011 969.434 231.86 971.215C230.701 971.87 229.272 971.971 228.002 971.614C226.329 971.145 224.771 969.852 224.123 968.221C221.166 960.78 244.443 874.301 248.915 862.284C252.75 851.98 257.783 841.629 264.534 832.905C273.493 821.327 284.914 810.845 295.812 801.126C330.604 770.307 368.564 743.262 409.058 720.445C416.11 716.46 423.038 712.196 430.411 708.822C431.51 696.203 430.71 682.94 430.737 670.252L430.859 598.061C430.861 596.392 431.342 593.392 429.614 592.442C427.411 591.229 421.409 591.765 418.689 591.585C397.129 590.153 373.659 585.594 357.907 569.595C348.982 560.531 343.833 549.244 340.141 537.222C333.604 515.936 331.678 493.537 329.161 471.523C324.142 424.249 321.236 376.774 320.452 329.24C320.155 316.579 319.511 303.964 319.457 291.291C319.387 274.831 319.964 258.431 320.106 241.983C314.738 242.803 305.607 245.261 300.901 241.777C299.793 240.956 299.124 239.84 298.985 238.452C298.389 232.472 308.508 220.848 312.262 216.022C302.479 218.158 288.035 222.024 278.193 221.457C275.8 221.32 272.499 220.671 270.967 218.601C269.92 217.187 269.64 215.663 269.849 213.946C271.039 204.204 289.024 185.373 296.06 178.813C300.86 174.338 306.064 170.261 311.15 166.119ZM344.047 497.873C343.78 494.971 342.824 491.128 343.989 488.433C345.09 487.461 345.232 487.369 346.68 487.146C347.912 487.709 348.35 487.818 348.972 489.115C350.909 493.156 352.708 536.32 352.477 542.716C352.4 544.852 352.011 546.565 351.212 548.538C353.122 552.59 354.979 556.686 357.498 560.408C356.428 555.41 353.142 522.543 353.977 518.565C354.832 517.708 355.379 517.022 356.709 516.988C357.315 516.973 358.22 517.22 358.614 517.718C359.62 518.987 364.405 557.003 363.727 560.613C363.462 562.022 362.856 563.45 362.354 564.79C364.759 567.389 367.367 569.719 370.296 571.722C369.384 565.322 365.789 543.308 368.941 538.79C369.693 538.465 369.723 538.262 370.56 538.565C371.576 538.932 372.068 539.287 372.502 540.301C374.16 544.171 375.896 560.308 376.19 565.082C376.309 567.019 375.888 572.728 376.444 574.081C376.965 575.347 379.267 576.515 380.438 577.043C382.866 578.137 385.442 579.211 387.992 579.98C385.294 571.797 382.051 556.405 385.961 548.33C386.362 547.502 386.811 547.056 387.585 546.547C388.689 546.487 389.365 546.395 390.241 547.262C392.025 549.029 391.244 553.073 391.083 555.38C390.419 564.878 392.45 572.567 394.506 581.739C399.399 582.79 404.141 583.585 409.154 583.658C404.633 577.373 402.275 567.905 403.396 560.179C403.635 558.534 404.212 556.322 405.488 555.147C405.899 554.768 406.36 554.583 406.848 554.349C408.163 554.644 408.639 554.997 409.392 556.147C410.937 558.508 410.631 561.898 410.64 564.591C436.033 565.681 460.997 565.879 486.235 562.281C486.58 558.103 486.485 551.346 489.837 548.345C490.53 547.724 490.586 547.872 491.446 547.833C493.102 549.313 493.462 551.442 493.542 553.58C493.778 559.911 491.66 566.293 491.256 572.615C495.885 572.096 500.478 571.668 505.13 571.412C505.826 565.988 508.025 541.053 511.4 538.584C512.068 538.095 512.63 538.432 513.389 538.562C514.893 539.818 515.292 541.259 515.427 543.168C516.025 551.628 513.111 562.013 511.43 570.307C517.065 569.386 522.786 568.623 528.346 567.324C529.862 560.178 530.038 540.223 534.309 535.822C534.98 535.625 535.394 535.259 536.024 535.7C537.585 536.794 538 539.299 538.161 541.067C538.616 546.031 536.328 561.079 535.178 566.271C539.9 565.1 544.641 564.011 549.4 563.006C550.459 554.655 551.69 546.334 552.828 537.996C553.239 534.988 553.037 531.859 553.595 528.879C553.86 527.467 554.22 526.414 555 525.21C556.296 524.422 556.308 524.454 557.819 524.656C559.073 525.725 559.503 526.394 559.653 528.063C560.537 537.89 557.709 551.479 556.297 561.401C560.623 560.044 564.938 558.599 569.363 557.597C569.421 551.587 569.797 516.646 571.381 512.684C572.623 511.517 572.823 511.576 574.537 511.352C575.772 511.827 576.109 511.853 576.571 513.223C578.581 519.191 576.052 546.301 575.983 554.486C579.794 551.74 582.914 548.651 585.964 545.091C586.121 531.546 585.562 517.888 584.821 504.364C584.509 498.674 583.409 492.55 583.605 486.897C583.647 485.671 584.205 485.023 584.942 484.13L586.909 483.614L586.342 484.239L586.984 483.642C588.4 485.165 588.93 486.608 589.388 488.631C591.514 498.025 591.094 508.934 591.534 518.552C591.734 522.928 592.316 527.352 592.365 531.722C594.61 526.53 596.366 521.461 597.587 515.937C596.847 515.015 596.21 514.175 595.826 513.036C594.106 507.944 594.394 485.954 594.077 479.044C593.677 470.336 587.575 457.932 588.275 451.069C588.371 450.133 588.612 449.563 589.21 448.823C589.931 448.641 590.141 448.37 590.807 448.854C594.292 451.385 596.918 464.905 598.335 469.454C598.8 454.327 599 439.744 596.859 424.708C596.4 421.488 595.298 417.874 596.927 414.867L597.972 414.326C599.925 415.346 600.597 417.136 601.233 419.172C603.88 427.635 604.475 436.839 607.134 445.407C607.082 438.195 606.938 430.957 607.12 423.748C607.424 411.669 610.833 333.895 608.43 327.303C606.554 322.157 603.699 317.24 601.169 312.388C596.496 303.373 591.742 294.4 586.907 285.47C583.706 279.569 580.123 273.736 577.531 267.537C580.798 259.42 585.587 251.865 589.889 244.269C593.8 237.362 597.39 230.278 601.284 223.362C605.874 215.211 610.766 207.201 614.837 198.772C606.456 203.892 598.047 208.669 589.275 213.087C575.424 220.064 525.995 243.145 511.89 239.479C510.292 239.064 508.95 238.26 508.143 236.776C506.314 233.412 508.564 227.567 509.885 224.252C512.396 217.954 515.504 211.594 518.786 205.666C512.467 209.231 505.729 212.109 499.125 215.106C471.567 227.633 442.863 237.467 413.413 244.473C406.706 246.113 395.939 249.648 389.335 247.72C387.872 247.293 386.392 246.466 385.719 245.027C384.599 242.632 386.018 239.191 387.095 237.025C390.627 229.927 395.95 222.987 400.685 216.624C377.928 226.043 355.32 233.656 331.382 239.476C331.623 250.222 330.404 260.83 330.552 271.527C349.101 266.321 355.063 263.236 375.136 265.332C379.169 265.753 383.75 266.125 387.321 268.212C388.912 269.142 390.555 270.618 391.115 272.439C391.383 273.312 391.168 274.025 390.962 274.875C389.78 276.48 388.584 277.232 386.595 277.587C381.974 278.41 376.367 276.67 371.744 276.037C367.486 275.441 363.177 275.292 358.888 275.592C354.783 275.947 350.718 276.668 346.741 277.745C341.665 279.133 336.077 281.899 330.798 281.611C330.065 311.594 331.582 341.434 332.97 371.371C334.863 416.982 338.267 462.518 343.174 507.903C343.447 510.905 343.986 513.88 344.462 516.855C344.53 510.696 344.963 503.961 344.047 497.873ZM677.12 323.561C663.252 327.068 653.537 336.217 646.281 348.328C636.225 365.115 631.529 385.796 628.178 404.924C627.162 410.72 627.055 417.566 625.307 423.108C624.781 424.774 623.895 425.763 622.254 426.373C619.066 427.557 614.771 424.939 612.014 423.486C612.258 435.838 612.146 448.244 612.541 460.581C612.668 464.542 614.026 472.158 613.49 475.747C613.397 476.369 613.261 476.527 612.985 477.009C611.854 477.551 611.219 477.538 609.979 477.434C608.611 476.504 608.417 475.967 608.058 474.352C607.413 471.451 607.309 468.283 606.955 465.327C606.263 459.558 605.103 453.473 603.256 447.967C603.349 459.301 604.006 470.623 605.224 481.891C605.84 487.29 608.324 493.36 607.974 498.719C607.478 506.316 601.086 525.735 598.203 533.366C596.642 537.5 594.924 541.952 592.597 545.724C590.518 549.096 585.497 552.789 584.337 556.368C582.866 560.903 592.917 563.806 587.405 569.442C583.281 573.659 577.292 576.926 572.381 580.218C556.334 590.974 538.016 600.903 519.347 606.148C509.657 608.871 499.55 610.427 489.653 612.229C478.274 614.3 466.855 616.263 455.241 616.077C450.655 615.969 446.07 615.782 441.49 615.515L442.611 703.751C442.671 709.791 441.826 730.02 443.009 734.699C444.915 742.234 458.498 766.425 462.845 774.838C464.369 777.781 465.816 780.82 467.509 783.667C480.448 769.921 492.65 755.301 505.112 741.109C507.878 737.959 510.129 733.422 513.335 730.841C518.457 726.715 551.693 713.309 560.341 709.51C576.684 702.33 594.246 692.85 611.125 687.578C612.422 672.711 614.851 658.027 616.636 643.223L628.204 550.538L635.26 496.116C636.235 488.861 636.811 481.352 638.188 474.182C634.369 471.874 626.512 468.022 625.317 463.521C624.997 462.314 625.081 461.163 625.776 460.084C626.468 459.011 627.379 458.716 628.598 458.685C632.359 458.588 636.818 461.375 640.314 462.676C654.416 467.927 668.812 458.439 678.807 449.152C698.823 430.218 710.625 404.195 711.683 376.663C712.143 361.003 710.572 344.364 699.326 332.379C694.708 327.457 687.615 323.541 680.718 323.453C679.518 323.427 678.317 323.463 677.12 323.561ZM599.623 483.898C599.484 490.664 600.38 497.41 600.348 504.177C601.004 504.127 600.794 504.267 601.083 503.994C601.554 502.496 602.155 500.865 602.323 499.301C602.659 496.167 601.245 486.703 599.884 484.272C599.81 484.139 599.71 484.023 599.623 483.898ZM630.675 690.924C619.128 695.188 607.792 700.639 596.578 705.72L551.486 725.92C541.558 730.337 531.38 735.452 521.01 738.676C522.106 745.239 524.268 751.587 525.962 758.013C527.725 764.698 529.1 771.483 531.325 778.037C534.096 777.132 536.902 776.288 539.624 775.245C552.157 770.095 564.518 764.541 577.102 759.513C591.735 753.665 606.562 748.378 621.244 742.67C631.541 738.666 641.67 733.99 652.101 730.37C649.767 724.763 635.066 693.39 631.492 691.037L630.675 690.924ZM430.118 721.415C424.301 724.544 402.155 735.838 398.814 739.41C397.964 740.32 397.55 741.378 397.102 742.518L397.354 743.243L397.743 743.166C405.474 740 413.222 736.714 420.812 733.22C424.217 731.652 427.469 729.469 431.044 728.365C431.091 726.25 431.415 723.761 430.704 721.754L430.118 721.415ZM598.048 763.53C587.935 768.014 577.492 771.735 567.263 775.946C555.706 780.703 542.596 786.572 530.804 790.389C528.954 790.987 525.731 792.073 523.829 791.524C522.429 791.12 521.26 788.309 520.788 787.083C518.948 782.3 517.869 777.104 516.636 772.13L487.518 785.441C481.845 788.004 476.044 791.024 470.071 792.786C469.061 805.148 467.827 817.733 467.336 830.116C467.144 832.191 466.92 834.268 466.787 836.347C502.466 840.034 537.894 845.817 573.62 849.239C578.13 828.797 583.155 808.718 589.376 788.724C591.112 783.143 597.95 767.81 598.048 763.53ZM377.202 832.352C371.992 866.371 366.339 900.424 363.437 934.742C370.251 936.136 377.41 936.56 384.332 937.262L423.169 940.96C430.748 941.658 438.332 942.102 445.853 943.319C447.407 943.436 447.525 943.669 448.689 942.674C450.221 938.601 450.807 920.631 451.261 915.328C452.627 899.341 454.19 883.372 455.95 867.424C456.798 859.561 457.349 851.522 458.641 843.729C442.156 841.203 425.656 838.779 409.141 836.457C398.816 834.935 387.607 832.5 377.202 832.352Z"/>
	<path fill="white" d="M351.212 548.538C352.011 546.565 352.4 544.852 352.477 542.716C352.708 536.32 350.909 493.156 348.972 489.115C348.35 487.818 347.912 487.709 346.68 487.146C345.232 487.369 345.09 487.461 343.989 488.433C342.824 491.128 343.78 494.971 344.047 497.873C343.866 500.61 344.496 505.586 343.174 507.903C338.267 462.518 334.863 416.982 332.97 371.371C331.582 341.434 330.065 311.594 330.798 281.611C336.077 281.899 341.665 279.133 346.741 277.745C350.718 276.668 354.783 275.947 358.888 275.592C363.177 275.292 367.486 275.441 371.744 276.037C376.367 276.67 381.974 278.41 386.595 277.587C388.584 277.232 389.78 276.48 390.962 274.875C391.168 274.025 391.383 273.312 391.115 272.439C390.555 270.618 388.912 269.142 387.321 268.212C383.75 266.125 379.169 265.753 375.136 265.332C355.063 263.236 349.101 266.321 330.552 271.527C330.404 260.83 331.623 250.222 331.382 239.476C355.32 233.656 377.928 226.043 400.685 216.624C395.95 222.987 390.627 229.927 387.095 237.025C386.018 239.191 384.599 242.632 385.719 245.027C386.392 246.466 387.872 247.293 389.335 247.72C395.939 249.648 406.706 246.113 413.413 244.473C442.863 237.467 471.567 227.633 499.125 215.106C505.729 212.109 512.467 209.231 518.786 205.666C515.504 211.594 512.396 217.954 509.885 224.252C508.564 227.567 506.314 233.412 508.143 236.776C508.95 238.26 510.292 239.064 511.89 239.479C525.995 243.145 575.424 220.064 589.275 213.087C598.047 208.669 606.456 203.892 614.837 198.772C610.766 207.201 605.874 215.211 601.284 223.362C597.39 230.278 593.8 237.362 589.889 244.269C585.587 251.865 580.798 259.42 577.531 267.537C580.123 273.736 583.706 279.569 586.907 285.47C591.742 294.4 596.496 303.373 601.169 312.388C603.699 317.24 606.554 322.157 608.43 327.303C610.833 333.895 607.424 411.669 607.12 423.748C606.938 430.957 607.082 438.195 607.134 445.407C604.475 436.839 603.88 427.635 601.233 419.172C600.597 417.136 599.925 415.346 597.972 414.326L596.927 414.867C595.298 417.874 596.4 421.488 596.859 424.708C599 439.744 598.8 454.327 598.335 469.454C596.918 464.905 594.292 451.385 590.807 448.854C590.141 448.37 589.931 448.641 589.21 448.823C588.612 449.563 588.371 450.133 588.275 451.069C587.575 457.932 593.677 470.336 594.077 479.044C594.394 485.954 594.106 507.944 595.826 513.036C596.21 514.175 596.847 515.015 597.587 515.937C596.366 521.461 594.61 526.53 592.365 531.722C592.316 527.352 591.734 522.928 591.534 518.552C591.094 508.934 591.514 498.025 589.388 488.631C588.93 486.608 588.4 485.165 586.984 483.642L586.342 484.239L586.909 483.614L584.942 484.13C584.205 485.023 583.647 485.671 583.605 486.897C583.409 492.55 584.509 498.674 584.821 504.364C585.562 517.888 586.121 531.546 585.964 545.091C582.914 548.651 579.794 551.74 575.983 554.486C576.052 546.301 578.581 519.191 576.571 513.223C576.109 511.853 575.772 511.827 574.537 511.352C572.823 511.576 572.623 511.517 571.381 512.684C569.797 516.646 569.421 551.587 569.363 557.597C564.938 558.599 560.623 560.044 556.297 561.401C557.709 551.479 560.537 537.89 559.653 528.063C559.503 526.394 559.073 525.725 557.819 524.656C556.308 524.454 556.296 524.422 555 525.21C554.22 526.414 553.86 527.467 553.595 528.879C553.037 531.859 553.239 534.988 552.828 537.996C551.69 546.334 550.459 554.655 549.4 563.006C544.641 564.011 539.9 565.1 535.178 566.271C536.328 561.079 538.616 546.031 538.161 541.067C538 539.299 537.585 536.794 536.024 535.7C535.394 535.259 534.98 535.625 534.309 535.822C530.038 540.223 529.862 560.178 528.346 567.324C522.786 568.623 517.065 569.386 511.43 570.307C513.111 562.013 516.025 551.628 515.427 543.168C515.292 541.259 514.893 539.818 513.389 538.562C512.63 538.432 512.068 538.095 511.4 538.584C508.025 541.053 505.826 565.988 505.13 571.412C500.478 571.668 495.885 572.096 491.256 572.615C491.66 566.293 493.778 559.911 493.542 553.58C493.462 551.442 493.102 549.313 491.446 547.833C490.586 547.872 490.53 547.724 489.837 548.345C486.485 551.346 486.58 558.103 486.235 562.281C460.997 565.879 436.033 565.681 410.64 564.591C410.631 561.898 410.937 558.508 409.392 556.147C408.639 554.997 408.163 554.644 406.848 554.349C406.36 554.583 405.899 554.768 405.488 555.147C404.212 556.322 403.635 558.534 403.396 560.179C402.275 567.905 404.633 577.373 409.154 583.658C404.141 583.585 399.399 582.79 394.506 581.739C392.45 572.567 390.419 564.878 391.083 555.38C391.244 553.073 392.025 549.029 390.241 547.262C389.365 546.395 388.689 546.487 387.585 546.547C386.811 547.056 386.362 547.502 385.961 548.33C382.051 556.405 385.294 571.797 387.992 579.98C385.442 579.211 382.866 578.137 380.438 577.043C379.267 576.515 376.965 575.347 376.444 574.081C375.888 572.728 376.309 567.019 376.19 565.082C375.896 560.308 374.16 544.171 372.502 540.301C372.068 539.287 371.576 538.932 370.56 538.565C369.723 538.262 369.693 538.465 368.941 538.79C365.789 543.308 369.384 565.322 370.296 571.722C367.367 569.719 364.759 567.389 362.354 564.79C362.856 563.45 363.462 562.022 363.727 560.613C364.405 557.003 359.62 518.987 358.614 517.718C358.22 517.22 357.315 516.973 356.709 516.988C355.379 517.022 354.832 517.708 353.977 518.565C353.142 522.543 356.428 555.41 357.498 560.408C354.979 556.686 353.122 552.59 351.212 548.538ZM519.921 258.713C512.361 259.326 475.874 263.666 472.564 267.821C471.586 269.048 471.369 270.515 471.662 272.014C471.871 273.085 472.321 273.818 473.252 274.355C474.769 275.231 476.678 275.3 478.389 275.221C483.379 274.988 488.684 273.548 493.608 272.653C500.764 271.351 507.801 270.386 515.052 269.801C530.805 268.3 544.909 270.493 560.22 273.816C561.962 272.329 564.087 270.877 564.412 268.434C564.596 267.052 564.104 266.109 563.203 265.108C557.95 259.273 531.08 258.246 523.671 258.523C522.427 258.569 521.16 258.587 519.921 258.713ZM435.27 299.822C408.435 321.963 389.806 353.204 386.576 388.134C385.735 397.224 385.208 432.32 390.447 438.862C391.575 440.27 393.551 440.262 395.211 440.346C402.208 440.699 409.627 439.854 416.622 439.373C433.229 437.817 452 435.511 467.521 429.224C466.319 421.026 464.214 412.914 462.404 404.832L453.575 365.232C448.994 344.556 445.514 323.378 439.752 302.988C439.504 302.111 439.147 301.564 438.606 300.848C437.369 300.083 436.726 299.863 435.27 299.822ZM492.123 310.546C486.667 314.538 483.898 319.534 482.815 326.205C481.537 334.071 481.879 346.86 486.935 353.398C488.371 355.255 490.363 356.722 492.759 356.969C493.989 357.095 495.313 356.934 496.483 356.553C501.761 353.226 504.001 348.373 505.345 342.442C507.195 334.281 506.875 322.756 502.114 315.57C500.725 313.474 498.296 311.032 495.725 310.512C494.599 310.285 493.255 310.437 492.123 310.546ZM365.05 314.481C359.996 317.656 357.781 322.62 356.461 328.256C354.544 336.445 354.495 348.666 358.978 356.079C360.381 358.399 362.476 360.148 365.148 360.788C366.26 361.054 367.4 360.955 368.516 360.767C373.285 358.219 375.362 354.552 376.871 349.462C379.527 340.497 379.514 329.059 374.821 320.73C373.489 318.366 370.969 315.395 368.203 314.721C367.191 314.474 366.086 314.494 365.05 314.481ZM479.767 444.16C452.399 448.396 425.599 454.322 397.762 454.977C392.467 455.101 379.363 453.162 376.02 457.453C375.076 458.665 374.651 460.317 374.909 461.831C375.19 463.476 376.411 465.404 377.888 466.237C379.915 467.382 382.186 466.983 384.412 466.837C406.522 467.31 428.833 466.373 450.648 462.452C456.747 461.356 462.694 459.708 468.739 458.389C473.349 457.383 481.672 456.676 485.206 453.429C486.569 452.177 487.635 450.434 487.562 448.522C487.51 447.145 486.886 446.192 485.87 445.317C484.353 444.009 482.289 443.755 480.397 444.049C480.186 444.082 479.977 444.123 479.767 444.16Z"/>
	<path d="M515.052 269.801C507.801 270.386 500.764 271.351 493.608 272.653C488.684 273.548 483.379 274.988 478.389 275.221C476.678 275.3 474.769 275.231 473.252 274.355C472.321 273.818 471.871 273.085 471.662 272.014C471.369 270.515 471.586 269.048 472.564 267.821C475.874 263.666 512.361 259.326 519.921 258.713C521.16 258.587 522.427 258.569 523.671 258.523C531.08 258.246 557.95 259.273 563.203 265.108C564.104 266.109 564.596 267.052 564.412 268.434C564.087 270.877 561.962 272.329 560.22 273.816C544.909 270.493 530.805 268.3 515.052 269.801Z"/>
	<path d="M416.622 439.373C409.627 439.854 402.208 440.699 395.211 440.346C393.551 440.262 391.575 440.27 390.447 438.862C385.208 432.32 385.735 397.224 386.576 388.134C389.806 353.204 408.435 321.963 435.27 299.822C436.726 299.863 437.369 300.083 438.606 300.848C439.147 301.564 439.504 302.111 439.752 302.988C445.514 323.378 448.994 344.556 453.575 365.232L462.404 404.832C464.214 412.914 466.319 421.026 467.521 429.224C452 435.511 433.229 437.817 416.622 439.373ZM434.363 308.437C407.283 335.635 392.004 364.012 392.085 403.405C392.106 413.298 391.929 424.94 394.829 434.407C402.568 434.519 410.197 433.97 417.881 433.102C432.579 431.731 446.132 428.436 460.42 425.131C458.727 412.067 454.623 398.87 451.854 385.961C447.866 366.56 443.684 347.198 439.31 327.88C437.994 322.203 436.745 313.568 434.363 308.437Z"/>
	<path fill="white" d="M394.829 434.407C391.929 424.94 392.106 413.298 392.085 403.405C392.004 364.012 407.283 335.635 434.363 308.437C436.745 313.568 437.994 322.203 439.31 327.88C443.684 347.198 447.866 366.56 451.854 385.961C454.623 398.87 458.727 412.067 460.42 425.131C446.132 428.436 432.579 431.731 417.881 433.102C410.197 433.97 402.568 434.519 394.829 434.407Z"/>
	<path d="M496.483 356.553C495.313 356.934 493.989 357.095 492.759 356.969C490.363 356.722 488.371 355.255 486.935 353.398C481.879 346.86 481.537 334.071 482.815 326.205C483.898 319.534 486.667 314.538 492.123 310.546C493.255 310.437 494.599 310.285 495.725 310.512C498.296 311.032 500.725 313.474 502.114 315.57C506.875 322.756 507.195 334.281 505.345 342.442C504.001 348.373 501.761 353.226 496.483 356.553Z"/>
	<path d="M368.516 360.767C367.4 360.955 366.26 361.054 365.148 360.788C362.476 360.148 360.381 358.399 358.978 356.079C354.495 348.666 354.544 336.445 356.461 328.256C357.781 322.62 359.996 317.656 365.05 314.481C366.086 314.494 367.191 314.474 368.203 314.721C370.969 315.395 373.489 318.366 374.821 320.73C379.514 329.059 379.527 340.497 376.871 349.462C375.362 354.552 373.285 358.219 368.516 360.767Z"/>
	<path fill="white" d="M612.014 423.486C614.771 424.939 619.066 427.557 622.254 426.373C623.895 425.763 624.781 424.774 625.307 423.108C627.055 417.566 627.162 410.72 628.178 404.924C631.529 385.796 636.225 365.115 646.281 348.328C653.537 336.217 663.252 327.068 677.12 323.561C678.317 323.463 679.518 323.427 680.718 323.453C687.615 323.541 694.708 327.457 699.326 332.379C710.572 344.364 712.143 361.003 711.683 376.663C710.625 404.195 698.823 430.218 678.807 449.152C668.812 458.439 654.416 467.927 640.314 462.676C636.818 461.375 632.359 458.588 628.598 458.685C627.379 458.716 626.468 459.011 625.776 460.084C625.081 461.163 624.997 462.314 625.317 463.521C626.512 468.022 634.369 471.874 638.188 474.182C636.811 481.352 636.235 488.861 635.26 496.116L628.204 550.538L616.636 643.223C614.851 658.027 612.422 672.711 611.125 687.578C594.246 692.85 576.684 702.33 560.341 709.51C551.693 713.309 518.457 726.715 513.335 730.841C510.129 733.422 507.878 737.959 505.112 741.109C492.65 755.301 480.448 769.921 467.509 783.667C465.816 780.82 464.369 777.781 462.845 774.838C458.498 766.425 444.915 742.234 443.009 734.699C441.826 730.02 442.671 709.791 442.611 703.751L441.49 615.515C446.07 615.782 450.655 615.969 455.241 616.077C466.855 616.263 478.274 614.3 489.653 612.229C499.55 610.427 509.657 608.871 519.347 606.148C538.016 600.903 556.334 590.974 572.381 580.218C577.292 576.926 583.281 573.659 587.405 569.442C592.917 563.806 582.866 560.903 584.337 556.368C585.497 552.789 590.518 549.096 592.597 545.724C594.924 541.952 596.642 537.5 598.203 533.366C601.086 525.735 607.478 506.316 607.974 498.719C608.324 493.36 605.84 487.29 605.224 481.891C604.006 470.623 603.349 459.301 603.256 447.967C605.103 453.473 606.263 459.558 606.955 465.327C607.309 468.283 607.413 471.451 608.058 474.352C608.417 475.967 608.611 476.504 609.979 477.434C611.219 477.538 611.854 477.551 612.985 477.009C613.261 476.527 613.397 476.369 613.49 475.747C614.026 472.158 612.668 464.542 612.541 460.581C612.146 448.244 612.258 435.838 612.014 423.486ZM694.376 352.535C670.737 360.513 652.568 379.721 641.78 401.809C638.396 408.739 630.792 426.518 629.762 433.633C630.345 434.709 631.07 435.332 632.273 435.707C632.791 435.869 633.348 435.868 633.883 435.893C634.162 435.676 634.508 435.523 634.72 435.24C637.024 432.163 639.28 423.09 640.876 419.094C642.805 414.264 645.032 409.544 647.252 404.841C650.688 398.309 654.125 391.788 658.765 386.005C664.579 394.505 665.89 401.731 666.504 411.855C666.637 414.045 666.619 417.198 667.515 419.241C668.053 420.467 668.358 420.452 669.538 420.723C671.026 420.235 672.349 419.537 672.937 417.959C673.685 415.948 673.36 412.714 673.209 410.574C672.379 398.836 669.057 390.35 662.987 380.374C669.887 373.743 676.67 368.007 685.019 363.217C688.866 361.009 697.492 359.126 699.601 355.468C699.567 354.353 699.595 353.946 698.602 353.204C697.222 352.174 695.988 352.303 694.376 352.535Z"/>
	<path d="M647.252 404.841C645.032 409.544 642.805 414.264 640.876 419.094C639.28 423.09 637.024 432.163 634.72 435.24C634.508 435.523 634.162 435.676 633.883 435.893C633.348 435.868 632.791 435.869 632.273 435.707C631.07 435.332 630.345 434.709 629.762 433.633C630.792 426.518 638.396 408.739 641.78 401.809C652.568 379.721 670.737 360.513 694.376 352.535C695.988 352.303 697.222 352.174 698.602 353.204C699.595 353.946 699.567 354.353 699.601 355.468C697.492 359.126 688.866 361.009 685.019 363.217C676.67 368.007 669.887 373.743 662.987 380.374C669.057 390.35 672.379 398.836 673.209 410.574C673.36 412.714 673.685 415.948 672.937 417.959C672.349 419.537 671.026 420.235 669.538 420.723C668.358 420.452 668.053 420.467 667.515 419.241C666.619 417.198 666.637 414.045 666.504 411.855C665.89 401.731 664.579 394.505 658.765 386.005C654.125 391.788 650.688 398.309 647.252 404.841Z"/>
	<path d="M384.412 466.837C382.186 466.983 379.915 467.382 377.888 466.237C376.411 465.404 375.19 463.476 374.909 461.831C374.651 460.317 375.076 458.665 376.02 457.453C379.363 453.162 392.467 455.101 397.762 454.977C425.599 454.322 452.399 448.396 479.767 444.16C479.977 444.123 480.186 444.082 480.397 444.049C482.289 443.755 484.353 444.009 485.87 445.317C486.886 446.192 487.51 447.145 487.562 448.522C487.635 450.434 486.569 452.177 485.206 453.429C481.672 456.676 473.349 457.383 468.739 458.389C462.694 459.708 456.747 461.356 450.648 462.452C428.833 466.373 406.522 467.31 384.412 466.837Z"/>
	<path fill="white" d="M601.083 503.994C600.794 504.267 601.004 504.127 600.348 504.177C600.38 497.41 599.484 490.664 599.623 483.898C599.71 484.023 599.81 484.139 599.884 484.272C601.245 486.703 602.659 496.167 602.323 499.301C602.155 500.865 601.554 502.496 601.083 503.994Z"/>
	<path fill="#DFDEE1" d="M344.047 497.873C344.963 503.961 344.53 510.696 344.462 516.855C343.986 513.88 343.447 510.905 343.174 507.903C344.496 505.586 343.866 500.61 344.047 497.873Z"/>
	<path fill="white" d="M521.01 738.676C531.38 735.452 541.558 730.337 551.486 725.92L596.578 705.72C607.792 700.639 619.128 695.188 630.675 690.924L631.492 691.037C635.066 693.39 649.767 724.763 652.101 730.37C641.67 733.99 631.541 738.666 621.244 742.67C606.562 748.378 591.735 753.665 577.102 759.513C564.518 764.541 552.157 770.095 539.624 775.245C536.902 776.288 534.096 777.132 531.325 778.037C529.1 771.483 527.725 764.698 525.962 758.013C524.268 751.587 522.106 745.239 521.01 738.676ZM627.214 715.029L570.271 736.848C558.747 741.227 546.23 745.114 535.204 750.571C533.065 751.63 531.029 752.705 529.736 754.77C529.681 756.224 529.697 756.25 530.543 757.436C531.41 757.761 532.061 757.992 532.992 757.997C552.414 751.977 571.319 743.566 590.265 736.19C602.27 731.516 614.98 727.692 626.714 722.47C627.932 721.928 629.556 721.265 630.322 720.099C631.067 718.966 630.884 718.421 630.655 717.192C629.548 715.829 628.941 715.493 627.214 715.029Z"/>
	<path d="M532.992 757.997C532.061 757.992 531.41 757.761 530.543 757.436C529.697 756.25 529.681 756.224 529.736 754.77C531.029 752.705 533.065 751.63 535.204 750.571C546.23 745.114 558.747 741.227 570.271 736.848L627.214 715.029C628.941 715.493 629.548 715.829 630.655 717.192C630.884 718.421 631.067 718.966 630.322 720.099C629.556 721.265 627.932 721.928 626.714 722.47C614.98 727.692 602.27 731.516 590.265 736.19C571.319 743.566 552.414 751.977 532.992 757.997Z"/>
	<path fill="white" d="M397.743 743.166L397.354 743.243L397.102 742.518C397.55 741.378 397.964 740.32 398.814 739.41C402.155 735.838 424.301 724.544 430.118 721.415L430.704 721.754C431.415 723.761 431.091 726.25 431.044 728.365C427.469 729.469 424.217 731.652 420.812 733.22C413.222 736.714 405.474 740 397.743 743.166Z"/>
	<path fill="white" d="M516.636 772.13C517.869 777.104 518.948 782.3 520.788 787.083C521.26 788.309 522.429 791.12 523.829 791.524C525.731 792.073 528.954 790.987 530.804 790.389C542.596 786.572 555.706 780.703 567.263 775.946C577.492 771.735 587.935 768.014 598.048 763.53C597.95 767.81 591.112 783.143 589.376 788.724C583.155 808.718 578.13 828.797 573.62 849.239C537.894 845.817 502.466 840.034 466.787 836.347C466.92 834.268 467.144 832.191 467.336 830.116C467.827 817.733 469.061 805.148 470.071 792.786C476.044 791.024 481.845 788.004 487.518 785.441L516.636 772.13Z"/>
	<path fill="white" d="M363.437 934.742C366.339 900.424 371.992 866.371 377.202 832.352C387.607 832.5 398.816 834.935 409.141 836.457C425.656 838.779 442.156 841.203 458.641 843.729C457.349 851.522 456.798 859.561 455.95 867.424C454.19 883.372 452.627 899.341 451.261 915.328C450.807 920.631 450.221 938.601 448.689 942.674C447.525 943.669 447.407 943.436 445.853 943.319C438.332 942.102 430.748 941.658 423.169 940.96L384.332 937.262C377.41 936.56 370.251 936.136 363.437 934.742Z"/>
</svg>
