<?xml version="1.0" standalone="no"?>
<!DOCTYPE svg PUBLIC "-//W3C//DTD SVG 20010904//EN"
 "http://www.w3.org/TR/2001/REC-SVG-20010904/DTD/svg10.dtd">
<svg version="1.0" xmlns="http://www.w3.org/2000/svg"
 width="512.000000pt" height="284.000000pt" viewBox="0 0 512.000000 284.000000"
 preserveAspectRatio="xMidYMid meet">

<g transform="translate(0.000000,284.000000) scale(0.100000,-0.100000)"
fill="#000000" stroke="none">
<path d="M2471 2614 c-47 -112 -80 -204 -76 -213 26 -71 160 -381 165 -381 5
0 139 310 165 381 6 17 -152 409 -165 409 -4 0 -44 -88 -89 -196z"/>
<path d="M1853 1996 c-105 -44 -194 -84 -198 -87 -6 -6 374 -169 395 -169 9 0
192 74 378 153 l33 14 -198 83 c-109 45 -202 84 -208 85 -5 2 -96 -34 -202
-79z"/>
<path d="M2862 1993 l-203 -86 33 -14 c186 -79 369 -153 378 -153 24 0 401
163 393 171 -7 6 -354 153 -388 164 -5 2 -101 -35 -213 -82z"/>
<path d="M2256 1153 c-165 -357 -303 -656 -308 -665 -7 -15 103 31 242 102 22
11 40 17 40 13 0 -5 -16 -66 -35 -138 l-35 -129 98 97 c53 53 100 97 103 97 3
0 48 -112 99 -250 51 -137 96 -250 100 -250 4 0 49 113 100 250 51 138 96 250
99 250 3 0 50 -44 103 -97 l98 -97 -35 129 c-19 72 -35 133 -35 138 0 4 18 -2
40 -13 139 -71 249 -117 242 -102 -5 9 -143 308 -308 665 -164 356 -301 647
-304 647 -3 0 -140 -291 -304 -647z"/>
</g>
</svg>
